<svg xmlns="http://www.w3.org/2000/svg" aria-hidden="true" overflow="hidden" style="position:absolute;width:0;height:0">
  <defs>
    <symbol id="icon-arrow" viewBox="0 0 36 32">
      <path d="M1.062 17.414a2 2 0 0 1 0-2.828L13.79 1.858a2 2 0 1 1 2.828 2.828L5.304 16l11.314 11.314a2 2 0 1 1-2.828 2.828L1.062 17.414zM36 18H2.476v-4H36v4z"/>
    </symbol>
    <symbol id="icon-facebook" viewBox="0 0 32 32">
      <path d="M3.2 12.8C3.2 5.731 8.931 0 16 0s12.8 5.731 12.8 12.8c0 7.069-5.731 12.8-12.8 12.8S3.2 19.869 3.2 12.8zm14.134 7.526v-6.964h1.922l.255-2.4h-2.177l.003-1.201c0-.626.059-.961.958-.961h1.202V6.4h-1.923c-2.309 0-3.122 1.164-3.122 3.122v1.441h-1.44v2.4h1.44v6.964h2.881z"/>
    <symbol id="icon-instagram" viewBox="0 0 32 32">
      <path d="M3.2 12.8C3.2 5.731 8.931 0 16 0s12.8 5.731 12.8 12.8c0 7.069-5.731 12.8-12.8 12.8S3.2 19.869 3.2 12.8zm12.801-6.827c-1.854 0-2.087.008-2.815.041-.727.033-1.223.148-1.657.317-.449.174-.83.408-1.209.787s-.613.76-.788 1.209c-.169.434-.284.93-.317 1.657-.033.728-.041.961-.041 2.815s.008 2.086.041 2.814c.033.727.148 1.223.317 1.657.174.449.408.83.787 1.209s.76.614 1.209.788c.434.169.931.284 1.657.317.728.033.961.041 2.815.041s2.086-.008 2.814-.041c.727-.033 1.223-.148 1.658-.317.449-.174.829-.408 1.208-.788s.613-.76.788-1.209c.168-.434.283-.93.317-1.657.033-.728.041-.96.041-2.814s-.008-2.087-.041-2.815c-.034-.727-.149-1.223-.317-1.657-.175-.449-.408-.83-.788-1.209s-.759-.613-1.209-.787c-.435-.169-.932-.284-1.658-.317-.728-.033-.96-.041-2.815-.041H16z"/>
      <path d="M15.388 7.204H16c1.823 0 2.039.007 2.759.039.666.03 1.027.142 1.268.235.319.124.546.272.784.511s.387.466.511.785c.093.24.205.602.235 1.267.033.72.04.936.04 2.758s-.007 2.038-.04 2.758c-.03.666-.142 1.027-.235 1.267-.124.319-.272.545-.511.784s-.466.387-.784.511c-.24.094-.602.205-1.268.235-.72.033-.936.04-2.759.04s-2.039-.007-2.759-.04c-.666-.031-1.027-.142-1.268-.235-.319-.124-.546-.272-.785-.511s-.387-.466-.511-.785c-.093-.24-.205-.602-.235-1.267-.033-.72-.039-.936-.039-2.759s.006-2.038.039-2.758c.03-.666.142-1.027.235-1.268.124-.319.272-.546.511-.785s.466-.387.785-.511c.241-.094.602-.205 1.268-.235.63-.028.874-.037 2.146-.038v.002zm4.257 1.133a.82.82 0 1 0 0 1.639.82.82 0 0 0 0-1.639zM16 9.295a3.506 3.506 0 1 0 0 7.013 3.506 3.506 0 0 0 0-7.013z"/>
      <path d="M16.001 10.524a2.276 2.276 0 1 1 0 4.552 2.276 2.276 0 0 1 0-4.552z"/>
    </symbol>
    <symbol id="icon-menu" viewBox="0 0 32 32">
      <path d="M29.333 24.007c0 0.733-0.595 1.327-1.327 1.327h-10.68c-0.352 0-0.689-0.14-0.938-0.389s-0.389-0.586-0.389-0.938c0-0.352 0.14-0.689 0.389-0.938s0.586-0.389 0.938-0.389h10.68c0.733 0 1.327 0.593 1.327 1.327zM29.333 16c0 0.733-0.595 1.327-1.327 1.327h-24.013c-0.352 0-0.689-0.14-0.938-0.389s-0.389-0.586-0.389-0.938c0-0.352 0.14-0.689 0.389-0.938s0.586-0.389 0.938-0.389h24.013c0.733 0 1.327 0.595 1.327 1.327zM28.007 9.32c0.352 0 0.689-0.14 0.938-0.389s0.389-0.586 0.389-0.938c0-0.352-0.14-0.689-0.389-0.938s-0.586-0.389-0.938-0.389h-16.013c-0.174 0-0.347 0.034-0.508 0.101s-0.307 0.164-0.43 0.288c-0.123 0.123-0.221 0.269-0.288 0.43s-0.101 0.333-0.101 0.508c0 0.174 0.034 0.347 0.101 0.508s0.164 0.307 0.288 0.43c0.123 0.123 0.269 0.221 0.43 0.288s0.333 0.101 0.508 0.101h16.013z"></path>
    </symbol>
    <symbol id="icon-logo" viewBox="0 0 75 32">
      <path d="M4.076 7.397l-1.239-0.75c-0.777-0.473-1.332-0.938-1.663-1.394-0.326-0.462-0.489-0.992-0.489-1.59 0-0.897 0.31-1.625 0.929-2.185 0.625-0.56 1.435-0.84 2.429-0.84 0.951 0 1.823 0.266 2.617 0.799v1.851c-0.821-0.788-1.704-1.182-2.649-1.182-0.533 0-0.97 0.125-1.313 0.375-0.342 0.245-0.514 0.56-0.514 0.946 0 0.342 0.125 0.663 0.375 0.962s0.655 0.611 1.215 0.938l1.247 0.734c1.391 0.826 2.087 1.88 2.087 3.163 0 0.913-0.307 1.655-0.921 2.226-0.609 0.571-1.402 0.856-2.38 0.856-1.125 0-2.149-0.345-3.073-1.035v-2.071c0.88 1.114 1.899 1.671 3.057 1.671 0.511 0 0.935-0.141 1.272-0.424 0.342-0.288 0.514-0.647 0.514-1.076 0-0.696-0.5-1.353-1.5-1.973zM16.932 0.785h1.63v11.389h-1.63v-4.957h-6.399v4.957h-1.63v-11.389h1.63v4.924h6.399v-4.924zM26.674 0.622c1.761 0 3.226 0.557 4.394 1.671 1.174 1.114 1.761 2.511 1.761 4.19s-0.592 3.071-1.777 4.174c-1.179 1.098-2.668 1.647-4.467 1.647-1.717 0-3.149-0.549-4.296-1.647-1.141-1.103-1.712-2.484-1.712-4.141 0-1.701 0.576-3.109 1.728-4.223s2.609-1.671 4.37-1.671zM26.739 2.171c-1.304 0-2.378 0.408-3.22 1.223-0.837 0.815-1.255 1.856-1.255 3.122 0 1.228 0.421 2.25 1.264 3.065s1.897 1.223 3.163 1.223c1.272 0 2.332-0.416 3.179-1.247 0.853-0.832 1.28-1.867 1.28-3.106 0-1.207-0.427-2.22-1.28-3.041-0.848-0.826-1.891-1.239-3.13-1.239zM34.736 12.174v-11.405h3.611c1.087 0 1.954 0.293 2.601 0.88s0.97 1.375 0.97 2.364c0 0.663-0.166 1.25-0.497 1.761s-0.785 0.883-1.361 1.117c-0.576 0.228-1.402 0.342-2.478 0.342h-1.206v4.94h-1.639zM38.062 2.22h-1.687v3.562h1.785c0.663 0 1.174-0.155 1.533-0.465 0.359-0.315 0.538-0.764 0.538-1.345 0-1.168-0.723-1.753-2.169-1.753zM11.739 28.448c0 0.973-0.334 1.75-1.003 2.332-0.663 0.581-1.592 0.872-2.788 0.872h-6.53v-11.299h5.462c0.707 0 1.321 0.068 1.842 0.204 0.527 0.136 0.951 0.323 1.272 0.563 0.321 0.234 0.56 0.511 0.717 0.831s0.236 0.671 0.236 1.052c0 0.413-0.082 0.796-0.245 1.149-0.163 0.348-0.367 0.636-0.611 0.864-0.239 0.223-0.481 0.38-0.726 0.473 0.772 0.304 1.359 0.69 1.761 1.158 0.408 0.462 0.611 1.062 0.611 1.802zM7.761 23.606c0-0.544-0.179-0.905-0.538-1.084s-0.918-0.269-1.679-0.269h-0.717v2.706h0.734c0.777 0 1.337-0.090 1.679-0.269 0.348-0.179 0.522-0.541 0.522-1.084zM8.315 28.31c0-0.967-0.701-1.451-2.103-1.451h-1.386v2.894h1.386c1.402 0 2.103-0.481 2.103-1.443zM25.842 31.652h-3.489l-0.921-2.291h-4.908l-0.938 2.291h-3.489l4.997-11.299h3.766l4.981 11.299zM20.649 27.397l-1.655-4.125-1.671 4.125h3.326zM39.228 31.652h-4.158l-4.321-5.291v5.291h-3.408v-11.299h3.408v5.054l4.092-5.054h3.701l-4.206 5.291 4.891 6.008zM49.231 31.652h-8.519v-11.299h8.38v2.266h-4.973v2.071h4.745v2.274h-4.745v2.413h5.111v2.274zM62.462 31.652h-3.66l-0.889-2.005c-0.326-0.734-0.62-1.269-0.88-1.606-0.261-0.342-0.516-0.56-0.766-0.652-0.245-0.098-0.563-0.147-0.954-0.147h-0.383v4.41h-3.408v-11.299h5.796c0.935 0 1.701 0.19 2.299 0.571s1.027 0.842 1.288 1.386c0.266 0.544 0.399 1.060 0.399 1.549 0 0.571-0.111 1.054-0.334 1.451-0.217 0.391-0.448 0.677-0.693 0.856s-0.519 0.351-0.823 0.514c0.364 0.212 0.663 0.465 0.897 0.758 0.239 0.288 0.563 0.875 0.97 1.761l1.141 2.454zM57.831 23.924c0-0.522-0.171-0.886-0.514-1.092s-0.899-0.31-1.671-0.31h-0.717v2.723h0.734c0.831 0 1.399-0.090 1.704-0.269 0.31-0.185 0.465-0.535 0.465-1.052zM74.543 20.353l-4.426 6.122v5.177h-3.408v-5.111l-4.508-6.187h3.538l2.592 3.554 2.601-3.554h3.611z"></path>
    </symbol>
    <symbol id="icon-btn-close" viewBox="0 0 32 32">
      <path d="M7.057 7.057c0.521-0.521 1.365-0.521 1.886 0l7.057 7.057 7.057-7.057c0.521-0.521 1.365-0.521 1.886 0s0.521 1.365 0 1.886l-7.057 7.057 7.057 7.057c0.521 0.521 0.521 1.365 0 1.886s-1.365 0.521-1.886 0l-7.057-7.057-7.057 7.057c-0.521 0.521-1.365 0.521-1.886 0s-0.521-1.365 0-1.886l7.057-7.057-7.057-7.057c-0.521-0.521-0.521-1.365 0-1.886z"></path>
    </symbol>
  </defs>
</svg>
